<?xml version="1.0" encoding="utf-8"?>
<svg version="1.1" xmlns="http://www.w3.org/2000/svg" xmlns:xlink="http://www.w3.org/1999/xlink" x="0px" y="0px"
	 viewBox="0 0 256 256" style="enable-background:new 0 0 256 256;" xml:space="preserve">
<style type="text/css">
	.st0{fill:#963569;}
	.st1{fill:#FFFFFF;}
	.st2{opacity:0.2;fill:#FFFFFF;}
	.st3{opacity:0.3;fill:#963569;}
</style>
<title>ext_icon_crawler_transparent2</title>
<rect y="0" class="st0" width="256" height="256"/>
<g>
	<path class="st1" d="M200.3,29.9c-18.9,0-34.3,15.4-34.3,34.3s15.3,34.3,34.3,34.3c19,0,34.3-15.4,34.3-34.3S219.3,29.9,200.3,29.9
		z M200.3,91.6c-15.2,0-27.4-12.3-27.4-27.4s12.3-27.4,27.4-27.4s27.4,12.3,27.4,27.4S215.5,91.6,200.3,91.6z"/>
	<path class="st1" d="M202.1,47h-5.1v20.6l18,10.8l2.6-4.2L202.1,65V47z"/>
</g>
<g>
	<path class="st1" d="M177,86H36.9c-8.6,0-15.6,6.9-15.6,15.6V195c0,8.6,6.9,15.6,15.6,15.6h38.9v15.6h62.3v-15.6H177
		c8.6,0,15.5-7,15.5-15.6l0.1-93.4C192.6,92.9,185.6,86,177,86z M177,195H36.9v-93.4H177V195z"/>
	<g>
		<path class="st1" d="M65.9,150.5h-9.1v9.4h-5V137h5v9.1h9.1V137h5v22.9h-5V150.5z"/>
		<path class="st1" d="M85.1,141.4v18.5h-5v-18.5h-5.9V137h16.6v4.4H85.1z"/>
		<path class="st1" d="M103.2,141.4v18.5h-5v-18.5h-5.9V137h16.6v4.4H103.2z"/>
		<path class="st1" d="M112.3,137h9.8c3.9,0,7.2,2.6,7.2,8.4c0,5.2-3.4,8.2-7.2,8.2h-4.8v6.3h-5V137z M117.2,141.4v7.9h3.7
			c1.8,0,3.2-1.5,3.2-3.9c0-2.6-1.4-4-3.2-4H117.2z"/>
		<path class="st1" d="M140.1,137h3.9v0.4l-9.9,22.5h-3.9v-0.4L140.1,137z"/>
		<path class="st1" d="M146.8,156.2l7.2-6.7c1.8-1.7,2.6-3.1,2.6-4.9c0-1.9-0.9-3.3-2.8-3.3c-2.1,0-3.1,1.9-3.1,4.5l-4.4-0.9
			c0.1-5,2.9-8.2,7.8-8.2c5.1,0,7.6,3.3,7.6,7.4c0,2.9-1.1,4.9-3.9,7.6l-4,3.8h8.4v4.3h-15.3V156.2z"/>
	</g>
</g>
<polygon class="st2" points="36.9,195 124.2,101.6 36.9,101.6 "/>
<path class="st1" d="M200.3,29.9c-18.9,0-34.3,15.4-34.3,34.3s15.3,34.3,34.3,34.3c19,0,34.3-15.4,34.3-34.3S219.3,29.9,200.3,29.9z
	 M200.3,91.6c-15.2,0-27.4-12.3-27.4-27.4s12.3-27.4,27.4-27.4s27.4,12.3,27.4,27.4S215.5,91.6,200.3,91.6z"/>
<path class="st3" d="M173.9,86h-8.6c6,9.6,15.8,16.5,27.3,18.7l0-3.1c0-1.4-0.2-2.8-0.6-4.1C184.8,95.7,178.5,91.6,173.9,86z"/>
</svg>
